<?xml version="1.0" encoding="utf-8"?>
<!-- Generator: Adobe Illustrator 25.2.1, SVG Export Plug-In . SVG Version: 6.00 Build 0)  -->
<svg version="1.1" id="Layer_1" xmlns="http://www.w3.org/2000/svg" xmlns:xlink="http://www.w3.org/1999/xlink" x="0px" y="0px"
	 viewBox="0 0 1000 600" style="enable-background:new 0 0 1000 600;" xml:space="preserve">
<style type="text/css">
	.st0{fill:#FFFFFF;}
</style>
<path class="st0" d="M381.59,214.06h-87.13c-9.88,0-17.89,8.01-17.89,17.89v87.13c0,9.88,8.01,17.89,17.89,17.89h10.56
	c4.13,2.66,12.49,7.75,29.46,19.26l-0.11,0.11c3.1,0,5.62-2.52,5.62-5.62v-13.76h41.61c9.88,0,17.89-8.01,17.89-17.89v-87.13
	C399.47,222.07,391.46,214.06,381.59,214.06z M294.53,276.53v-27.01l0.11,0.09v-0.07l42.87-23.17v9.21l-36.19,19.57l0.21,0.17v16.23
	l36.54,19.98v9.21l-43.44-23.75v-0.44H294.53z M356.47,282.51l0.17-0.09v9.21l-0.06,0.03v0.12l-0.11-0.06l-18.36,9.18v-9.21
	l9.62-4.81l-28.8-15.96v-9.21l0.32,0.18v-0.4l18.53-9.27v9.21l-10.17,5.09L356.47,282.51z M337.79,261.45v-9.21l19.11,10.43v9.21
	L337.79,261.45z M338.25,323.14l-43.45-23.75v-0.6l-0.09-0.05v-14.85l7,4.06v6.01l36.54,19.98V323.14z M380.57,299.38l-42.29,23.75
	v-9.21l42.29-23.75V299.38z M381.02,258.75l-0.05-0.03v10.9l-7.58-4.06v-10.89l-35.82-19.11v-9.21l43.45,23.17V258.75z"/>
<g>
	<path class="st0" d="M464.04,332.69c-1.29,1.02-2.71,1.9-4.24,2.64c-1.54,0.73-3.22,1.29-5.04,1.67c-1.83,0.38-3.87,0.57-6.14,0.57
		c-3.43,0-6.61-0.62-9.55-1.87s-5.48-2.95-7.61-5.11c-2.14-2.16-3.81-4.71-5.01-7.65s-1.8-6.08-1.8-9.42v-0.13
		c0-3.34,0.6-6.47,1.8-9.38c1.2-2.92,2.87-5.48,5.01-7.68c2.14-2.2,4.7-3.94,7.68-5.21c2.98-1.27,6.28-1.9,9.88-1.9
		c2.18,0,4.17,0.18,5.98,0.53c1.8,0.36,3.44,0.85,4.91,1.47c1.47,0.62,2.83,1.38,4.07,2.27c1.25,0.89,2.4,1.87,3.47,2.94l-6.54,7.55
		c-1.83-1.65-3.68-2.94-5.58-3.87c-1.89-0.94-4.02-1.4-6.38-1.4c-1.96,0-3.77,0.38-5.44,1.13c-1.67,0.76-3.11,1.8-4.31,3.14
		c-1.2,1.34-2.14,2.88-2.8,4.64c-0.67,1.76-1,3.64-1,5.64v0.13c0,2,0.33,3.9,1,5.68c0.67,1.78,1.59,3.34,2.77,4.67
		s2.6,2.39,4.27,3.17c1.67,0.78,3.51,1.17,5.51,1.17c2.67,0,4.93-0.49,6.78-1.47c1.85-0.98,3.68-2.31,5.51-4.01l6.54,6.61
		C466.57,330.51,465.33,331.67,464.04,332.69z"/>
	<path class="st0" d="M521.74,322.78c-1.25,2.92-2.97,5.48-5.17,7.68c-2.2,2.2-4.83,3.94-7.88,5.21c-3.05,1.27-6.38,1.9-9.98,1.9
		c-3.61,0-6.92-0.63-9.95-1.9c-3.03-1.27-5.64-2.98-7.85-5.14c-2.2-2.16-3.92-4.7-5.14-7.61c-1.22-2.92-1.84-6.04-1.84-9.38v-0.13
		c0-3.34,0.62-6.47,1.87-9.38c1.25-2.92,2.97-5.48,5.18-7.68s4.83-3.94,7.88-5.21c3.05-1.27,6.38-1.9,9.98-1.9s6.92,0.63,9.95,1.9
		c3.03,1.27,5.64,2.98,7.85,5.14c2.2,2.16,3.92,4.7,5.14,7.61c1.22,2.92,1.84,6.04,1.84,9.38v0.13
		C523.61,316.73,522.98,319.86,521.74,322.78z M512.85,313.39c0-2-0.34-3.89-1.04-5.68c-0.69-1.78-1.67-3.34-2.94-4.67
		c-1.27-1.34-2.77-2.39-4.51-3.17c-1.74-0.78-3.63-1.17-5.68-1.17c-2.09,0-4,0.38-5.71,1.13c-1.71,0.76-3.18,1.8-4.41,3.14
		c-1.22,1.34-2.18,2.88-2.87,4.64c-0.69,1.76-1.03,3.64-1.03,5.64v0.13c0,2,0.34,3.9,1.03,5.68c0.69,1.78,1.67,3.34,2.94,4.67
		c1.27,1.34,2.76,2.39,4.47,3.17c1.71,0.78,3.62,1.17,5.71,1.17c2.05,0,3.94-0.38,5.68-1.13s3.22-1.8,4.44-3.14
		c1.22-1.33,2.18-2.88,2.87-4.64s1.04-3.64,1.04-5.64V313.39z"/>
	<path class="st0" d="M565.54,336.77l-22.64-29.72v29.72h-10.15v-46.75h9.48l21.91,28.78v-28.78h10.15v46.75H565.54z"/>
	<path class="st0" d="M618.3,336.77l-22.64-29.72v29.72h-10.15v-46.75H595l21.91,28.78v-28.78h10.15v46.75H618.3z"/>
	<path class="st0" d="M638.27,336.77v-46.75h35.2v9.15h-25.04v9.48h22.04v9.15h-22.04v9.82h25.38v9.15H638.27z"/>
	<path class="st0" d="M720.35,332.69c-1.29,1.02-2.71,1.9-4.24,2.64c-1.54,0.73-3.22,1.29-5.04,1.67c-1.83,0.38-3.87,0.57-6.14,0.57
		c-3.43,0-6.61-0.62-9.55-1.87s-5.48-2.95-7.61-5.11c-2.14-2.16-3.81-4.71-5.01-7.65s-1.8-6.08-1.8-9.42v-0.13
		c0-3.34,0.6-6.47,1.8-9.38c1.2-2.92,2.87-5.48,5.01-7.68c2.14-2.2,4.7-3.94,7.68-5.21c2.98-1.27,6.28-1.9,9.88-1.9
		c2.18,0,4.17,0.18,5.98,0.53c1.8,0.36,3.44,0.85,4.91,1.47c1.47,0.62,2.83,1.38,4.07,2.27c1.25,0.89,2.4,1.87,3.47,2.94l-6.54,7.55
		c-1.83-1.65-3.68-2.94-5.58-3.87c-1.89-0.94-4.02-1.4-6.38-1.4c-1.96,0-3.77,0.38-5.44,1.13c-1.67,0.76-3.11,1.8-4.31,3.14
		c-1.2,1.34-2.14,2.88-2.8,4.64c-0.67,1.76-1,3.64-1,5.64v0.13c0,2,0.33,3.9,1,5.68c0.67,1.78,1.59,3.34,2.77,4.67
		s2.6,2.39,4.27,3.17c1.67,0.78,3.51,1.17,5.51,1.17c2.67,0,4.93-0.49,6.78-1.47c1.85-0.98,3.68-2.31,5.51-4.01l6.54,6.61
		C722.88,330.51,721.64,331.67,720.35,332.69z"/>
	<path class="st0" d="M753.47,299.5v37.26h-10.29V299.5h-14.22v-9.48h38.73v9.48H753.47z"/>
	<path class="st0" d="M808.11,329.12c-0.84,1.8-2.01,3.32-3.52,4.54c-1.5,1.23-3.3,2.16-5.38,2.81c-2.09,0.64-4.4,0.97-6.93,0.97
		c-3.56,0-7.06-0.61-10.49-1.84c-3.43-1.22-6.54-3.11-9.35-5.64l6.08-7.28c2.14,1.74,4.33,3.12,6.58,4.14
		c2.25,1.02,4.71,1.54,7.38,1.54c2.14,0,3.79-0.39,4.98-1.17c1.18-0.78,1.77-1.86,1.77-3.24v-0.13c0-0.67-0.12-1.26-0.37-1.77
		c-0.25-0.51-0.71-0.99-1.41-1.44c-0.69-0.44-1.65-0.89-2.88-1.34c-1.23-0.44-2.82-0.91-4.79-1.4c-2.37-0.58-4.51-1.22-6.43-1.94
		c-1.92-0.71-3.55-1.59-4.89-2.64c-1.34-1.05-2.38-2.35-3.11-3.91c-0.74-1.56-1.1-3.49-1.1-5.81v-0.13c0-2.14,0.4-4.06,1.19-5.78
		s1.91-3.19,3.35-4.44c1.44-1.25,3.15-2.2,5.15-2.87c2-0.67,4.2-1,6.6-1c3.43,0,6.58,0.51,9.45,1.54c2.87,1.03,5.51,2.49,7.91,4.41
		l-5.34,7.75c-2.09-1.42-4.14-2.55-6.14-3.37c-2-0.82-4.01-1.24-6.01-1.24s-3.51,0.39-4.51,1.17c-1,0.78-1.5,1.75-1.5,2.9v0.13
		c0,0.76,0.15,1.41,0.44,1.97s0.81,1.06,1.57,1.5c0.76,0.45,1.8,0.87,3.11,1.27c1.32,0.4,2.98,0.87,4.99,1.4
		c2.37,0.62,4.47,1.33,6.33,2.1c1.85,0.78,3.41,1.71,4.69,2.8c1.27,1.09,2.23,2.37,2.88,3.84c0.65,1.47,0.97,3.23,0.97,5.28v0.13
		C809.37,325.26,808.95,327.32,808.11,329.12z"/>
</g>
<g>
	<path class="st0" d="M452.47,254.71c-0.6,1.22-1.44,2.27-2.5,3.13c-1.07,0.87-2.32,1.53-3.74,2c-1.43,0.47-2.96,0.7-4.61,0.7
		c-2.49,0-4.99-0.47-7.48-1.4c-2.49-0.93-4.65-2.14-6.48-3.61l1.94-2.6c1.87,1.43,3.83,2.53,5.88,3.31
		c2.05,0.78,4.16,1.17,6.34,1.17c2.31,0,4.26-0.58,5.84-1.73c1.58-1.16,2.37-2.73,2.37-4.73v-0.13c0-0.98-0.25-1.82-0.73-2.53
		c-0.49-0.71-1.16-1.33-2-1.87s-1.8-0.98-2.87-1.33c-1.07-0.35-2.2-0.71-3.41-1.07c-1.38-0.4-2.77-0.82-4.17-1.27
		c-1.4-0.44-2.66-1.01-3.77-1.7c-1.11-0.69-2.01-1.54-2.7-2.57c-0.69-1.02-1.04-2.29-1.04-3.8v-0.13c0-1.38,0.28-2.63,0.83-3.76
		s1.32-2.12,2.3-2.97c0.98-0.84,2.16-1.5,3.54-1.97c1.38-0.47,2.89-0.7,4.54-0.7c2.05,0,4.15,0.34,6.31,1.02
		c2.16,0.68,4.08,1.61,5.78,2.78l-1.74,2.74c-1.56-1.02-3.24-1.85-5.04-2.47c-1.8-0.62-3.62-0.94-5.44-0.94
		c-2.36,0-4.24,0.57-5.64,1.7c-1.4,1.13-2.1,2.54-2.1,4.23v0.13c0,0.93,0.27,1.74,0.8,2.43c0.54,0.69,1.24,1.28,2.1,1.77
		s1.88,0.92,3.04,1.3c1.16,0.38,2.34,0.75,3.54,1.1c1.38,0.4,2.74,0.83,4.07,1.3s2.54,1.07,3.61,1.8c1.07,0.73,1.92,1.61,2.57,2.63
		c0.64,1.02,0.97,2.29,0.97,3.8v0.13C453.37,252.12,453.07,253.49,452.47,254.71z"/>
	<path class="st0" d="M495.14,249.65c-0.87,2.14-2.09,4.03-3.67,5.68c-1.58,1.65-3.44,2.95-5.58,3.91
		c-2.14,0.96-4.47,1.44-7.01,1.44s-4.86-0.48-6.98-1.44c-2.12-0.96-3.95-2.24-5.51-3.84c-1.56-1.6-2.77-3.47-3.64-5.61
		c-0.87-2.14-1.3-4.41-1.3-6.81v-0.13c0-2.4,0.43-4.67,1.3-6.81c0.87-2.14,2.09-4.03,3.67-5.68c1.58-1.65,3.44-2.95,5.58-3.91
		c2.14-0.96,4.47-1.44,7.01-1.44c2.54,0,4.86,0.48,6.98,1.44c2.11,0.96,3.95,2.24,5.51,3.84c1.56,1.6,2.77,3.47,3.64,5.61
		c0.87,2.14,1.3,4.41,1.3,6.81v0.13C496.45,245.25,496.01,247.52,495.14,249.65z M492.97,242.84c0-2.04-0.36-3.96-1.07-5.75
		s-1.71-3.36-2.99-4.69c-1.28-1.33-2.77-2.37-4.5-3.13c-1.72-0.75-3.57-1.13-5.54-1.13c-2.01,0-3.88,0.39-5.6,1.16
		c-1.72,0.78-3.2,1.82-4.43,3.12s-2.19,2.85-2.88,4.62c-0.69,1.77-1.04,3.66-1.04,5.65v0.13c0,2.04,0.36,3.96,1.07,5.75
		c0.72,1.79,1.71,3.36,2.99,4.69c1.28,1.33,2.77,2.37,4.5,3.12c1.72,0.75,3.57,1.13,5.54,1.13c2.01,0,3.88-0.39,5.6-1.16
		c1.72-0.78,3.2-1.82,4.43-3.12c1.23-1.31,2.19-2.85,2.88-4.62c0.69-1.77,1.04-3.66,1.04-5.65V242.84z"/>
	<path class="st0" d="M529.47,258.74c-2.2,1.29-4.86,1.94-7.98,1.94c-2.45,0-4.73-0.48-6.84-1.44c-2.12-0.96-3.95-2.24-5.5-3.84
		c-1.55-1.6-2.77-3.47-3.64-5.61c-0.87-2.14-1.31-4.41-1.31-6.81v-0.13c0-2.4,0.44-4.67,1.31-6.81c0.87-2.14,2.09-4.03,3.64-5.68
		c1.55-1.65,3.39-2.95,5.5-3.91c2.11-0.96,4.4-1.44,6.84-1.44c1.6,0,3.06,0.17,4.37,0.51s2.53,0.81,3.64,1.4
		c1.11,0.59,2.13,1.27,3.04,2.03c0.91,0.76,1.77,1.56,2.57,2.41l-2.34,2.4c-1.47-1.51-3.09-2.83-4.88-3.94
		c-1.78-1.11-3.94-1.67-6.48-1.67c-1.96,0-3.77,0.38-5.44,1.13c-1.67,0.75-3.12,1.78-4.34,3.09c-1.22,1.31-2.19,2.85-2.9,4.62
		c-0.71,1.77-1.07,3.68-1.07,5.72v0.13c0,2.04,0.37,3.96,1.1,5.75c0.73,1.79,1.74,3.36,3,4.69c1.27,1.33,2.75,2.37,4.44,3.12
		c1.69,0.75,3.52,1.13,5.48,1.13c2.4,0,4.55-0.54,6.45-1.64c1.89-1.09,3.55-2.44,4.97-4.04l2.27,2
		C533.64,255.82,531.67,257.44,529.47,258.74z"/>
	<path class="st0" d="M544.73,216.93v-4.47h4.07v4.47H544.73z M545.13,259.87v-34.06h3.27v34.06H545.13z"/>
	<path class="st0" d="M592.65,249.65c-0.87,2.14-2.09,4.03-3.67,5.68c-1.58,1.65-3.44,2.95-5.58,3.91
		c-2.14,0.96-4.47,1.44-7.01,1.44s-4.86-0.48-6.98-1.44c-2.12-0.96-3.95-2.24-5.51-3.84c-1.56-1.6-2.77-3.47-3.64-5.61
		c-0.87-2.14-1.3-4.41-1.3-6.81v-0.13c0-2.4,0.43-4.67,1.3-6.81c0.87-2.14,2.09-4.03,3.67-5.68c1.58-1.65,3.44-2.95,5.58-3.91
		c2.14-0.96,4.47-1.44,7.01-1.44c2.54,0,4.86,0.48,6.98,1.44c2.11,0.96,3.95,2.24,5.51,3.84c1.56,1.6,2.77,3.47,3.64,5.61
		c0.87,2.14,1.3,4.41,1.3,6.81v0.13C593.95,245.25,593.51,247.52,592.65,249.65z M590.47,242.84c0-2.04-0.36-3.96-1.07-5.75
		s-1.71-3.36-2.99-4.69c-1.28-1.33-2.77-2.37-4.5-3.13c-1.72-0.75-3.57-1.13-5.54-1.13c-2.01,0-3.88,0.39-5.6,1.16
		c-1.72,0.78-3.2,1.82-4.43,3.12s-2.19,2.85-2.88,4.62c-0.69,1.77-1.04,3.66-1.04,5.65v0.13c0,2.04,0.36,3.96,1.07,5.75
		c0.72,1.79,1.71,3.36,2.99,4.69c1.28,1.33,2.77,2.37,4.5,3.12c1.72,0.75,3.57,1.13,5.54,1.13c2.01,0,3.88-0.39,5.6-1.16
		c1.72-0.78,3.2-1.82,4.43-3.12c1.23-1.31,2.19-2.85,2.88-4.62c0.69-1.77,1.04-3.66,1.04-5.65V242.84z"/>
</g>
</svg>
