<svg version="1.2" xmlns="http://www.w3.org/2000/svg" viewBox="0 0 534 145" width="534" height="145"><style>.a{fill:#fff}</style><path fill-rule="evenodd" class="a" d="m123.5 19.9v87.2c0 9.8-8 17.9-17.9 17.9h-41.6v13.7c0 3.1-2.5 5.6-5.6 5.6l0.1-0.1c-17-11.5-25.4-16.6-29.5-19.2h-10.5c-9.9 0-17.9-8-17.9-17.9v-87.2c0-9.8 8-17.8 17.9-17.8h87.1c9.9 0 17.9 8 17.9 17.8zm-105 44.6h0.1v0.5l43.5 23.7v-9.2l-36.6-20v-16.2l-0.2-0.2 36.2-19.5v-9.2l-42.9 23.1v0.1l-0.1-0.1zm33.1-10l10.2-5.1v-9.2l-18.6 9.3v0.4l-0.3-0.2v9.2l28.8 15.9-9.6 4.9v9.2l18.4-9.2 0.1 0.1v-0.2-9.2l-0.1 0.1zm29.3 5.3v-9.2l-19.2-10.4v9.2zm-18.6 42.1l-36.5-20v-6l-7-4.1v14.9 0.6l43.5 23.8zm42.3-23.8l-42.3 23.8v9.2l42.3-23.8zm0.5-40.6l-43.5-23.2v9.2l35.8 19.1v10.9l7.6 4.1v-10.9h0.1z"/><path class="a" d="m188 120.7q-1.9 1.5-4.2 2.6-2.3 1.1-5 1.7-2.8 0.6-6.2 0.6-5.1 0-9.5-1.9-4.4-1.9-7.6-5.1-3.3-3.3-5.1-7.7-1.8-4.4-1.8-9.4v-0.1q0-5 1.8-9.4 1.8-4.4 5.1-7.7 3.2-3.3 7.6-5.2 4.5-1.9 9.9-1.9 3.3 0 6 0.5 2.7 0.6 4.9 1.5 2.2 1 4.1 2.3 1.8 1.3 3.4 2.9l-6.5 7.6q-2.7-2.5-5.6-3.9-2.8-1.4-6.4-1.4-2.9 0-5.4 1.1-2.5 1.2-4.3 3.2-1.8 2-2.8 4.6-1 2.7-1 5.7v0.1q0 3 1 5.7 1 2.6 2.8 4.6 1.7 2 4.2 3.2 2.5 1.2 5.5 1.2 4.1 0 6.8-1.5 2.8-1.5 5.5-4l6.6 6.6q-1.8 2-3.8 3.5z"/><path fill-rule="evenodd" class="a" d="m245.7 110.8q-1.8 4.4-5.1 7.7-3.3 3.3-7.9 5.2-4.6 1.9-10 1.9-5.4 0-9.9-1.9-4.6-1.9-7.9-5.2-3.3-3.2-5.1-7.6-1.9-4.4-1.9-9.4v-0.1q0-5 1.9-9.4 1.9-4.4 5.2-7.7 3.3-3.3 7.9-5.2 4.5-1.9 9.9-1.9 5.4 0 10 1.9 4.5 1.9 7.8 5.2 3.3 3.2 5.2 7.6 1.8 4.4 1.8 9.4v0.1q0 5-1.9 9.4zm-8.9-9.4q0.1-3-1-5.7-1-2.7-2.9-4.7-1.9-2-4.5-3.1-2.6-1.2-5.7-1.2-3.2 0-5.7 1.1-2.6 1.2-4.4 3.2-1.9 2-2.9 4.6-1 2.6-1 5.6v0.2q0 3 1 5.7 1 2.6 2.9 4.6 1.9 2 4.5 3.2 2.6 1.2 5.7 1.2 3.1 0 5.7-1.2 2.6-1.1 4.4-3.1 1.9-2 2.9-4.6 1-2.7 1-5.7c0 0 0-0.1 0-0.1z"/><path class="a" d="m289.5 124.8l-22.6-29.8v29.8h-10.2v-46.8h9.5l21.9 28.8v-28.8h10.2v46.8z"/><path class="a" d="m342.3 124.8l-22.6-29.8v29.8h-10.2v-46.8h9.5l21.9 28.8v-28.8h10.2v46.8z"/><path class="a" d="m362.3 124.8v-46.8h35.2v9.2h-25.1v9.4h22.1v9.2h-22.1v9.8h25.4v9.2z"/><path class="a" d="m444.3 120.7q-1.9 1.5-4.2 2.6-2.3 1.1-5 1.7-2.8 0.6-6.2 0.6-5.1 0-9.5-1.9-4.4-1.9-7.6-5.1-3.2-3.3-5-7.7-1.8-4.4-1.8-9.4v-0.1q0-5 1.8-9.4 1.8-4.4 5-7.7 3.2-3.3 7.6-5.2 4.5-1.9 9.9-1.9 3.3 0 6 0.5 2.7 0.6 4.9 1.5 2.2 1 4.1 2.3 1.9 1.3 3.5 2.9l-6.6 7.6q-2.7-2.5-5.6-3.9-2.8-1.4-6.3-1.4-3 0-5.5 1.1-2.5 1.2-4.3 3.2-1.8 2-2.8 4.6-1 2.7-1 5.7v0.1q0 3 1 5.7 1 2.6 2.8 4.6 1.7 2 4.2 3.2 2.6 1.2 5.6 1.2 4 0 6.7-1.5 2.8-1.5 5.5-4l6.6 6.6q-1.8 2-3.8 3.5z"/><path class="a" d="m477.5 87.5v37.3h-10.3v-37.3h-14.2v-9.5h38.7v9.5z"/><path class="a" d="m532.1 117.1q-1.2 2.7-3.5 4.6-2.3 1.8-5.4 2.8-3.1 0.9-6.9 0.9-5.4 0-10.5-1.8-5.2-1.8-9.4-5.6l6.1-7.3q3.2 2.6 6.6 4.1 3.4 1.6 7.4 1.6 3.2 0 5-1.2 1.7-1.2 1.7-3.3v-0.1q0-1-0.3-1.8-0.4-0.7-1.5-1.4-1-0.7-2.8-1.3-1.9-0.7-4.8-1.4-3.6-0.9-6.5-2-2.8-1-4.8-2.6-2.1-1.6-3.2-3.9-1.1-2.4-1.1-5.8v-0.2q0.1-3.2 1.2-5.7 1.2-2.6 3.4-4.5 2.1-1.9 5.1-2.9 3-1 6.6-1 5.2 0 9.5 1.6 4.3 1.5 7.9 4.4l-5.3 7.7q-3.2-2.1-6.2-3.3-3-1.3-6-1.3-3 0-4.5 1.2-1.5 1.2-1.5 2.9v0.1q0 1.2 0.4 2 0.5 0.8 1.6 1.5 1.2 0.7 3.1 1.3 2 0.6 5 1.4 3.6 0.9 6.3 2.1 2.8 1.1 4.7 2.8 1.9 1.6 2.9 3.8 1 2.2 1 5.3v0.1q0 3.5-1.3 6.2z"/><path class="a" d="m176.5 42.7q-0.9 1.8-2.5 3.1-1.6 1.3-3.8 2-2.1 0.7-4.6 0.7-3.7 0-7.5-1.4-3.7-1.4-6.4-3.6l1.9-2.6q2.8 2.2 5.9 3.3 3.1 1.2 6.3 1.2 3.5 0 5.9-1.7 2.3-1.8 2.3-4.8v-0.1q0-1.4-0.7-2.5-0.7-1.1-2-1.9-1.3-0.8-2.9-1.3-1.6-0.5-3.4-1.1-2.1-0.6-4.2-1.3-2.1-0.6-3.7-1.7-1.7-1-2.7-2.5-1.1-1.6-1.1-3.8v-0.2q0-2 0.9-3.7 0.8-1.7 2.3-3 1.4-1.2 3.5-2 2.1-0.7 4.5-0.7 3.1 0 6.4 1.1 3.2 1 5.7 2.7l-1.7 2.8q-2.3-1.5-5-2.5-2.7-0.9-5.5-0.9-3.5 0-5.6 1.7-2.1 1.7-2.1 4.2v0.1q0 1.4 0.8 2.5 0.8 1 2.1 1.7 1.3 0.8 3 1.3 1.8 0.6 3.6 1.1 2 0.6 4 1.3 2 0.7 3.6 1.8 1.6 1.1 2.6 2.7 1 1.5 1 3.8v0.1q0 2.3-0.9 4.1z"/><path fill-rule="evenodd" class="a" d="m219.1 37.6q-1.3 3.3-3.6 5.7-2.4 2.5-5.6 3.9-3.2 1.5-7 1.5-3.8 0-7-1.5-3.2-1.4-5.5-3.8-2.3-2.4-3.7-5.6-1.3-3.2-1.3-6.8v-0.2q0-3.6 1.3-6.8 1.4-3.2 3.7-5.6 2.4-2.5 5.6-4 3.2-1.4 7-1.4 3.8 0 7 1.4 3.2 1.5 5.5 3.9 2.3 2.4 3.6 5.6 1.3 3.2 1.3 6.8v0.1q0 3.7-1.3 6.8zm-2.1-6.8q0-3-1.1-5.7-1.1-2.7-3-4.7-1.9-2-4.5-3.1-2.6-1.2-5.5-1.2-3 0-5.6 1.2-2.6 1.2-4.5 3.1-1.8 2-2.8 4.6-1.1 2.7-1.1 5.7v0.1q0 3.1 1.1 5.8 1.1 2.7 3 4.7 1.9 2 4.5 3.1 2.6 1.1 5.5 1.1 3 0 5.6-1.2 2.6-1.1 4.4-3.1 1.9-1.9 2.9-4.6 1.1-2.7 1.1-5.6z"/><path class="a" d="m253.5 46.7q-3.3 2-8 2-3.7 0-6.9-1.5-3.1-1.4-5.5-3.8-2.3-2.4-3.6-5.6-1.3-3.2-1.3-6.8v-0.2q0-3.6 1.3-6.8 1.3-3.2 3.6-5.6 2.4-2.5 5.5-4 3.2-1.4 6.9-1.4 2.4 0 4.4 0.5 1.9 0.5 3.6 1.4 1.7 0.9 3 2 1.4 1.2 2.6 2.5l-2.3 2.4q-2.2-2.3-4.9-4-2.7-1.6-6.5-1.7-2.9 0.1-5.4 1.2-2.5 1.1-4.4 3.1-1.8 1.9-2.9 4.6-1 2.6-1 5.7v0.1q0 3.1 1.1 5.8 1.1 2.7 3 4.7 1.9 2 4.4 3.1 2.5 1.1 5.5 1.1 3.6 0 6.4-1.6 2.9-1.6 5-4.1l2.3 2q-2.6 3-5.9 4.9z"/><path class="a" d="m268.7 4.9v-4.4h4.1v4.4zm0.4 43v-34.1h3.3v34.1z"/><path fill-rule="evenodd" class="a" d="m316.6 37.6q-1.3 3.3-3.6 5.7-2.4 2.5-5.6 3.9-3.2 1.5-7 1.5-3.8 0-7-1.5-3.2-1.4-5.5-3.8-2.3-2.4-3.6-5.6-1.3-3.2-1.3-6.8v-0.2q0-3.6 1.3-6.8 1.3-3.2 3.6-5.6 2.4-2.5 5.6-4 3.2-1.4 7-1.4 3.8 0 7 1.4 3.2 1.5 5.5 3.9 2.3 2.4 3.6 5.6 1.4 3.2 1.3 6.8v0.1q0 3.7-1.3 6.8zm-2.1-6.8q0-3-1.1-5.7-1.1-2.7-3-4.7-1.9-2-4.5-3.1-2.6-1.2-5.5-1.2-3 0-5.6 1.2-2.6 1.2-4.5 3.1-1.8 2-2.8 4.6-1.1 2.7-1.1 5.7v0.1q0 3.1 1.1 5.8 1.1 2.7 3 4.7 1.9 2 4.5 3.1 2.6 1.1 5.5 1.1 3 0 5.6-1.2 2.6-1.1 4.4-3.1 1.9-1.9 2.9-4.6 1.1-2.7 1.1-5.6z"/></svg>